<?xml version="1.0" encoding="utf-8" ?>
<svg baseProfile="full" height="536" version="1.1" viewBox="0 0 1024 536" width="1024" xmlns="http://www.w3.org/2000/svg" xmlns:ev="http://www.w3.org/2001/xml-events" xmlns:xlink="http://www.w3.org/1999/xlink"><defs /><polygon fill="black" points="310,293 310,356 874,356 874,293" stroke="none" /><polygon fill="black" points="168,293 168,356 289,356 289,293" stroke="none" /><polygon fill="black" points="785,220 784,221 782,221 781,222 777,222 776,223 775,223 774,224 772,224 771,225 770,225 769,226 767,226 765,228 764,228 763,229 762,229 761,230 760,230 756,234 755,234 746,243 746,244 743,247 743,248 741,250 741,251 740,252 740,253 739,254 739,255 738,256 738,257 737,258 737,260 736,261 736,262 735,263 735,266 734,267 734,269 733,270 733,276 732,277 732,283 874,283 874,220" stroke="none" /><polygon fill="black" points="604,220 603,221 600,221 599,222 595,222 594,223 593,223 592,224 590,224 589,225 588,225 587,226 586,226 585,227 584,227 583,228 582,228 580,230 579,230 577,232 576,232 568,240 567,240 567,241 563,245 563,246 561,248 561,249 559,251 559,252 558,253 558,254 557,255 557,256 556,257 556,258 555,259 555,261 554,262 554,263 553,264 553,267 552,268 552,271 551,272 551,277 550,278 550,283 708,283 708,278 707,277 707,271 706,270 706,267 705,266 705,264 704,263 704,261 703,260 703,259 702,258 702,256 700,254 700,253 699,252 699,251 698,250 698,249 696,247 696,246 694,244 694,243 693,243 692,242 692,241 691,241 690,240 690,239 685,234 684,234 682,232 681,232 678,229 677,229 676,228 675,228 673,226 671,226 670,225 669,225 668,224 666,224 665,223 664,223 663,222 659,222 658,221 655,221 654,220" stroke="none" /><polygon fill="black" points="385,220 385,283 527,283 527,278 526,277 526,270 525,269 525,267 524,266 524,263 523,262 523,261 522,260 522,258 521,257 521,256 520,255 520,254 518,252 518,251 517,250 517,249 516,248 516,247 513,244 513,243 504,234 503,234 499,230 498,230 497,229 496,229 495,228 494,228 492,226 490,226 489,225 488,225 487,224 485,224 484,223 483,223 482,222 478,222 477,221 474,221 473,220" stroke="none" /><polygon fill="black" points="227,218 226,219 221,219 220,220 216,220 215,221 213,221 212,222 210,222 209,223 208,223 207,224 205,224 203,226 201,226 199,228 198,228 196,230 195,230 192,233 191,233 189,235 189,236 188,237 187,237 185,239 185,240 181,244 181,245 179,247 179,248 177,250 177,251 176,252 176,253 175,254 175,255 174,256 174,257 173,258 173,260 172,261 172,263 171,264 171,266 170,267 170,272 169,273 169,279 168,280 168,281 289,281 289,218" stroke="none" /><polygon fill="black" points="265,153 264,154 262,154 261,155 260,155 258,157 257,157 253,161 253,162 252,163 252,164 251,165 251,166 250,167 250,170 249,171 249,177 250,178 250,180 251,181 251,183 253,185 253,186 258,191 259,191 261,193 264,193 265,194 268,194 269,195 272,195 273,194 276,194 277,193 279,193 280,192 281,192 284,189 285,189 287,187 287,186 288,185 288,184 289,183 289,182 290,181 290,179 291,178 291,169 290,168 290,166 289,165 289,164 287,162 287,161 282,156 281,156 280,155 279,155 278,154 277,154 276,153" stroke="none" /><polygon fill="black" points="212,153 211,154 210,154 209,155 207,155 205,157 204,157 200,161 200,162 199,163 199,164 198,165 198,166 197,167 197,181 199,183 199,185 205,191 206,191 207,192 208,192 209,193 211,193 212,194 215,194 216,195 219,195 220,194 223,194 224,193 226,193 228,191 229,191 235,185 235,184 236,183 236,182 237,181 237,178 238,177 238,170 237,169 237,166 236,165 236,164 235,163 235,162 233,160 233,159 232,159 229,156 228,156 227,155 226,155 225,154 224,154 223,153" stroke="none" /><polygon fill="black" points="847,142 846,143 844,143 843,144 841,144 839,146 838,146 835,149 835,150 833,152 833,153 832,154 832,155 831,156 831,160 830,161 830,163 829,164 770,164 770,182 874,182 874,159 873,158 873,155 871,153 871,151 865,145 864,145 863,144 862,144 861,143 858,143 857,142" stroke="none" /></svg>