<?xml version="1.0" encoding="utf-8" ?>
<svg baseProfile="full" height="1500" version="1.1" viewBox="0 0 2000 1500" width="2000" xmlns="http://www.w3.org/2000/svg" xmlns:ev="http://www.w3.org/2001/xml-events" xmlns:xlink="http://www.w3.org/1999/xlink"><defs /><polygon fill="white" points="621,824 621,940 1628,940 1628,824" stroke="none" /><polygon fill="white" points="371,824 371,941 589,941 589,824" stroke="none" /><polygon fill="white" points="1408,695 1407,696 1401,696 1400,697 1396,697 1395,698 1392,698 1391,699 1388,699 1387,700 1385,700 1384,701 1382,701 1381,702 1379,702 1378,703 1376,703 1375,704 1374,704 1373,705 1372,705 1371,706 1370,706 1369,707 1368,707 1367,708 1366,708 1364,710 1362,710 1360,712 1359,712 1357,714 1356,714 1354,716 1353,716 1350,719 1349,719 1345,723 1344,723 1335,732 1335,733 1329,739 1329,740 1326,743 1326,744 1324,746 1324,747 1322,749 1322,750 1321,751 1321,752 1319,754 1319,755 1318,756 1318,757 1317,758 1317,759 1316,760 1316,761 1315,762 1315,763 1314,764 1314,766 1313,767 1313,768 1312,769 1312,771 1311,772 1311,774 1310,775 1310,777 1309,778 1309,781 1308,782 1308,785 1307,786 1307,791 1306,792 1306,799 1305,800 1305,810 1562,810 1562,695" stroke="none" /><polygon fill="white" points="1085,695 1084,696 1078,696 1077,697 1073,697 1072,698 1069,698 1068,699 1066,699 1065,700 1063,700 1062,701 1059,701 1058,702 1057,702 1056,703 1054,703 1053,704 1052,704 1051,705 1050,705 1049,706 1048,706 1047,707 1045,707 1044,708 1043,708 1041,710 1040,710 1039,711 1038,711 1036,713 1035,713 1034,714 1033,714 1030,717 1029,717 1026,720 1025,720 1018,727 1017,727 1016,728 1016,729 1008,737 1008,738 1004,742 1004,743 1002,745 1002,746 1000,748 1000,749 999,750 999,751 997,753 997,754 996,755 996,756 995,757 995,758 994,759 994,760 993,761 993,762 992,763 992,764 991,765 991,767 990,768 990,769 989,770 989,772 988,773 988,775 987,776 987,778 986,779 986,782 985,783 985,787 984,788 984,793 983,794 983,802 982,803 982,810 1266,810 1266,800 1265,799 1265,792 1264,791 1264,786 1263,785 1263,782 1262,781 1262,778 1261,777 1261,775 1260,774 1260,772 1259,771 1259,769 1258,768 1258,767 1257,766 1257,764 1256,763 1256,762 1255,761 1255,760 1254,759 1254,758 1253,757 1253,756 1252,755 1252,754 1250,752 1250,751 1249,750 1249,749 1247,747 1247,746 1245,744 1245,743 1242,740 1242,739 1236,733 1236,732 1227,723 1226,723 1222,719 1221,719 1218,716 1217,716 1215,714 1214,714 1212,712 1211,712 1209,710 1208,710 1207,709 1206,709 1205,708 1204,708 1203,707 1202,707 1201,706 1200,706 1199,705 1198,705 1197,704 1196,704 1195,703 1193,703 1192,702 1190,702 1189,701 1187,701 1186,700 1184,700 1183,699 1180,699 1179,698 1176,698 1175,697 1171,697 1170,696 1164,696 1163,695" stroke="none" /><polygon fill="white" points="688,695 688,810 945,810 945,805 944,804 944,794 943,793 943,788 942,787 942,784 941,783 941,780 940,779 940,776 939,775 939,773 938,772 938,770 937,769 937,768 936,767 936,765 935,764 935,763 934,762 934,761 933,760 933,759 932,758 932,757 931,756 931,755 930,754 930,753 928,751 928,750 927,749 927,748 925,746 925,745 922,742 922,741 918,737 918,736 902,720 901,720 898,717 897,717 894,714 893,714 892,713 891,713 889,711 888,711 887,710 886,710 885,709 884,709 883,708 882,708 881,707 880,707 879,706 878,706 877,705 876,705 875,704 874,704 873,703 871,703 870,702 869,702 868,701 865,701 864,700 862,700 861,699 859,699 858,698 855,698 854,697 850,697 849,696 843,696 842,695" stroke="none" /><polygon fill="white" points="482,692 481,693 469,693 468,694 463,694 462,695 459,695 458,696 456,696 455,697 452,697 451,698 449,698 448,699 446,699 445,700 443,700 442,701 441,701 440,702 439,702 438,703 437,703 436,704 435,704 434,705 433,705 432,706 431,706 430,707 429,707 428,708 427,708 425,710 424,710 422,712 421,712 419,714 418,714 415,717 414,717 409,722 408,722 401,729 401,730 395,736 395,737 392,740 392,741 390,743 390,744 388,746 388,747 387,748 387,749 385,751 385,752 384,753 384,754 383,755 383,756 382,757 382,758 381,759 381,760 380,761 380,763 379,764 379,765 378,766 378,768 377,769 377,770 376,771 376,774 375,775 375,777 374,778 374,781 373,782 373,786 372,787 372,793 371,794 371,808 589,808 589,692" stroke="none" /><polygon fill="white" points="548,576 547,577 542,577 541,578 539,578 538,579 537,579 536,580 535,580 534,581 533,581 531,583 530,583 526,587 525,587 525,588 521,592 521,593 519,595 519,596 518,597 518,598 517,599 517,600 516,601 516,604 515,605 515,608 514,609 514,621 515,622 515,626 516,627 516,629 517,630 517,631 518,632 518,634 520,636 520,637 523,640 523,641 528,646 529,646 531,648 532,648 533,649 534,649 535,650 536,650 537,651 538,651 539,652 541,652 542,653 545,653 546,654 560,654 561,653 564,653 565,652 567,652 568,651 569,651 570,650 571,650 572,649 573,649 574,648 575,648 577,646 578,646 583,641 583,640 586,637 586,636 588,634 588,632 589,631 589,630 590,629 590,627 591,626 591,623 592,622 592,609 591,608 591,605 590,604 590,601 589,600 589,599 588,598 588,597 587,596 587,595 585,593 585,592 581,588 581,587 580,586 579,586 576,583 575,583 573,581 572,581 571,580 570,580 569,579 568,579 567,578 565,578 564,577 559,577 558,576" stroke="none" /><polygon fill="white" points="454,576 453,577 448,577 447,578 445,578 444,579 443,579 442,580 441,580 440,581 439,581 438,582 437,582 433,586 432,586 430,588 430,589 426,593 426,594 425,595 425,596 424,597 424,598 423,599 423,600 422,601 422,603 421,604 421,607 420,608 420,622 421,623 421,627 422,628 422,629 423,630 423,632 424,633 424,634 425,635 425,636 427,638 427,639 434,646 435,646 437,648 438,648 439,649 440,649 441,650 442,650 443,651 444,651 445,652 447,652 448,653 451,653 452,654 466,654 467,653 470,653 471,652 473,652 474,651 475,651 476,650 477,650 478,649 479,649 481,647 482,647 484,645 485,645 486,644 486,643 487,642 488,642 489,641 489,640 491,638 491,637 493,635 493,634 494,633 494,632 495,631 495,630 496,629 496,626 497,625 497,621 498,620 498,610 497,609 497,605 496,604 496,602 495,601 495,599 493,597 493,596 492,595 492,594 491,593 491,592 482,583 481,583 479,581 478,581 477,580 476,580 475,579 474,579 473,578 470,578 469,577 465,577 464,576" stroke="none" /><polygon fill="white" points="1511,558 1510,559 1505,559 1504,560 1502,560 1501,561 1500,561 1499,562 1498,562 1496,564 1495,564 1487,572 1487,573 1485,575 1485,576 1484,577 1484,578 1483,579 1483,580 1482,581 1482,583 1481,584 1481,587 1480,588 1480,592 1479,593 1479,596 1478,597 1372,597 1372,632 1562,632 1562,596 1561,595 1561,590 1560,589 1560,585 1559,584 1559,582 1558,581 1558,580 1557,579 1557,578 1556,577 1556,576 1555,575 1555,574 1553,572 1553,571 1546,564 1545,564 1543,562 1542,562 1541,561 1539,561 1538,560 1537,560 1536,559 1531,559 1530,558" stroke="none" /></svg>