<svg version="1.1" id="Layer_1" xmlns="http://www.w3.org/2000/svg" xmlns:xlink="http://www.w3.org/1999/xlink" x="0px" y="0px"
	 width="100%" viewBox="0 0 1024 752" enable-background="new 0 0 1024 752" xml:space="preserve">
<path fill="#000000" opacity="1.000000" stroke="none" 
	d="
M682.002380,422.597931 
	C712.161255,422.439545 741.824036,421.941193 771.478699,422.245544 
	C790.640747,422.442169 809.787781,421.835052 828.944641,421.966949 
	C833.938477,422.001373 835.558472,423.443085 835.458069,428.531464 
	C835.148804,444.190918 835.349976,459.860291 835.335022,475.525787 
	C835.328491,482.378296 835.308777,482.356384 828.478882,482.419769 
	C718.159912,483.443390 607.838318,482.737152 497.518097,482.902985 
	C440.689117,482.988403 383.859894,482.892731 327.030762,482.869476 
	C318.732239,482.866089 318.731812,482.841797 318.729980,474.683075 
	C318.726685,460.017487 318.720428,445.351929 318.722351,430.686340 
	C318.723480,422.083160 318.729706,422.043304 327.612488,422.075256 
	C371.937195,422.234680 416.261688,422.505219 460.586487,422.569275 
	C520.238159,422.655457 579.890930,422.751831 639.541443,422.466583 
	C653.532532,422.399719 667.515869,422.664307 682.002380,422.597931 
z"/>
<path fill="#000000" opacity="1.000000" stroke="none" 
	d="
M639.958496,416.281982 
	C596.514465,416.286255 553.562805,416.292480 510.611115,416.292114 
	C503.629242,416.292053 502.833710,415.338867 503.949585,408.426392 
	C509.153046,376.192505 533.254333,355.609344 565.974487,355.762787 
	C576.937256,355.814178 587.913696,355.023102 598.872131,356.570618 
	C626.562134,360.480774 648.402222,383.906494 650.110779,411.707520 
	C650.305603,414.878052 649.247070,416.450745 645.943726,416.288269 
	C644.117065,416.198456 642.282043,416.278351 639.958496,416.281982 
z"/>
<path fill="#000000" opacity="1.000000" stroke="none" 
	d="
M409.999939,416.295654 
	C392.674927,416.300293 375.848083,416.169739 359.026093,416.396423 
	C354.390106,416.458862 352.549042,415.285400 352.636200,410.288300 
	C352.917938,394.134521 352.905151,377.970276 352.649811,361.815674 
	C352.572021,356.893738 354.349457,355.594635 359.027802,355.634857 
	C381.181885,355.825409 403.338837,355.639740 425.494141,355.736725 
	C455.949097,355.870026 481.258453,378.270874 485.157379,408.388733 
	C486.081635,415.528290 485.457306,416.276550 478.466400,416.279724 
	C455.810913,416.289948 433.155457,416.290802 409.999939,416.295654 
z"/>
<path fill="#000000" opacity="1.000000" stroke="none" 
	d="
M677.853149,383.943573 
	C690.467224,364.926697 708.149292,355.937103 730.362549,355.752625 
	C752.025146,355.572723 773.691223,355.811951 795.354126,355.650726 
	C799.826538,355.617493 801.490662,356.929230 801.420471,361.618256 
	C801.176025,377.946014 801.199890,394.281372 801.414062,410.610016 
	C801.471130,414.963135 800.140686,416.377930 795.730713,416.363129 
	C755.235840,416.227509 714.740173,416.234436 674.245300,416.365570 
	C669.799194,416.379944 668.197205,414.966888 668.839539,410.547943 
	C670.193726,401.232239 672.484985,392.267914 677.853149,383.943573 
z"/>
<path fill="#000000" opacity="1.000000" stroke="none" 
	d="
M210.000717,483.060028 
	C204.834534,483.045166 200.167114,482.965088 195.502182,483.039307 
	C192.305099,483.090149 190.587708,482.110291 190.612747,478.471222 
	C190.731964,461.139801 190.707199,443.806976 190.638535,426.475067 
	C190.627731,423.747131 191.686020,422.461212 194.375946,422.385223 
	C196.205566,422.333557 198.032501,422.100677 199.860748,422.099365 
	C232.192123,422.076385 264.523499,422.071533 296.854889,422.075836 
	C303.226746,422.076691 303.316040,422.174835 303.318115,428.453064 
	C303.323334,444.452118 303.323822,460.451172 303.304901,476.450226 
	C303.297180,482.979919 303.247528,483.024078 296.495544,483.028290 
	C267.830536,483.046173 239.165543,483.050964 210.000717,483.060028 
z"/>
<path fill="#000000" opacity="1.000000" stroke="none" 
	d="
M303.273224,411.730042 
	C302.576111,416.297913 299.283722,415.071594 296.906433,415.077759 
	C265.785889,415.158813 234.665100,415.133179 203.544357,415.134491 
	C201.380890,415.134583 199.217377,415.146423 197.053986,415.134033 
	C190.779816,415.098114 190.324142,414.591858 190.730682,408.162445 
	C192.483826,380.437103 218.769592,355.229065 246.826797,354.740814 
	C263.963013,354.442596 281.109436,354.774048 298.249207,354.607788 
	C302.213470,354.569336 303.418457,355.960724 303.381378,359.834198 
	C303.217438,376.974091 303.301178,394.116302 303.273224,411.730042 
z"/>
<path fill="#000000" opacity="1.000000" stroke="none" 
	d="
M748.896606,305.703857 
	C751.044128,305.696991 752.711182,305.629181 754.372559,305.697754 
	C756.981384,305.805420 758.068481,304.597931 758.766174,302.048645 
	C762.277344,289.219788 770.131348,284.391510 784.026062,286.210571 
	C794.661743,287.602905 801.196533,295.685272 801.322327,307.656921 
	C801.366089,311.817841 801.163147,315.987671 801.370605,320.138580 
	C801.550232,323.731781 800.308044,325.201508 796.548889,325.189697 
	C766.920044,325.096527 737.290710,325.121246 707.661682,325.178345 
	C704.327759,325.184753 702.769043,323.959747 702.841248,320.491211 
	C703.217529,302.426239 700.442383,306.043182 716.954041,305.739105 
	C727.437256,305.546051 737.926819,305.703674 748.896606,305.703857 
z"/>
<path fill="#000000" opacity="1.000000" stroke="none" 
	d="
M303.368134,307.988281 
	C308.917664,320.681915 299.480438,333.254028 289.888794,335.658112 
	C278.213593,338.584473 267.128815,331.902374 264.244232,319.616333 
	C262.179108,310.820801 267.278748,301.028259 275.991699,297.058167 
	C284.473785,293.193298 295.124298,295.863403 300.705933,303.328033 
	C301.694427,304.650024 302.405151,306.179657 303.368134,307.988281 
z"/>
<path fill="#000000" opacity="1.000000" stroke="none" 
	d="
M230.113693,335.367920 
	C221.160309,332.181335 216.438004,325.958496 215.766495,317.036591 
	C215.136093,308.660858 218.885284,302.179260 226.097855,297.963287 
	C233.972809,293.360138 244.445526,294.960663 250.941864,301.454559 
	C257.061493,307.571869 258.427795,318.271637 254.070572,325.955841 
	C249.433868,334.132935 240.180237,337.866241 230.113693,335.367920 
z"/>
</svg>