<?xml version="1.0" encoding="utf-8" ?>
<svg baseProfile="full" height="536" version="1.1" viewBox="0 0 1024 536" width="1024" xmlns="http://www.w3.org/2000/svg" xmlns:ev="http://www.w3.org/2001/xml-events" xmlns:xlink="http://www.w3.org/1999/xlink"><defs /><polygon fill="white" points="309,291 309,357 875,357 875,291" stroke="none" /><polygon fill="white" points="168,291 168,357 291,357 291,292 290,291" stroke="none" /><polygon fill="white" points="791,218 790,219 783,219 782,220 779,220 778,221 776,221 775,222 773,222 772,223 771,223 770,224 768,224 767,225 766,225 765,226 764,226 762,228 761,228 759,230 758,230 756,232 755,232 745,242 745,243 743,245 743,246 740,249 740,250 739,251 739,252 738,253 738,254 737,255 737,256 736,257 736,258 735,259 735,261 734,262 734,264 733,265 733,267 732,268 732,272 731,273 731,280 730,281 730,283 731,284 875,284 875,218" stroke="none" /><polygon fill="white" points="609,218 608,219 601,219 600,220 598,220 597,221 594,221 593,222 591,222 590,223 589,223 588,224 587,224 586,225 585,225 584,226 583,226 582,227 581,227 580,228 579,228 576,231 575,231 572,234 571,234 571,235 570,236 569,236 565,240 565,241 561,245 561,246 560,247 560,248 558,250 558,251 556,253 556,255 554,257 554,259 553,260 553,262 552,263 552,266 551,267 551,269 550,270 550,276 549,277 549,284 709,284 709,274 708,273 708,270 707,269 707,265 706,264 706,262 705,261 705,259 704,258 704,257 703,256 703,255 702,254 702,253 701,252 701,251 699,249 699,248 697,246 697,245 694,242 694,241 686,233 685,233 682,230 681,230 679,228 678,228 677,227 676,227 675,226 674,226 672,224 670,224 669,223 668,223 667,222 665,222 664,221 662,221 661,220 658,220 657,219 650,219 649,218" stroke="none" /><polygon fill="white" points="384,218 383,219 383,283 384,284 528,284 528,273 527,272 527,269 526,268 526,265 525,264 525,262 524,261 524,259 523,258 523,257 522,256 522,255 521,254 521,253 520,252 520,251 518,249 518,248 516,246 516,245 514,243 514,242 505,233 504,233 501,230 500,230 498,228 497,228 495,226 493,226 491,224 489,224 488,223 487,223 486,222 484,222 483,221 481,221 480,220 477,220 476,219 469,219 468,218" stroke="none" /><polygon fill="white" points="222,217 221,218 218,218 217,219 214,219 213,220 211,220 210,221 208,221 207,222 206,222 205,223 204,223 203,224 202,224 200,226 199,226 198,227 197,227 194,230 193,230 191,232 190,232 183,239 183,240 180,243 180,244 178,246 178,247 176,249 176,250 175,251 175,252 174,253 174,254 173,255 173,256 172,257 172,259 171,260 171,261 170,262 170,265 169,266 169,269 168,270 168,283 290,283 291,282 291,218 290,217" stroke="none" /><polygon fill="white" points="268,151 267,152 263,152 262,153 261,153 260,154 259,154 258,155 257,155 253,159 253,160 251,162 251,163 250,164 250,165 249,166 249,169 248,170 248,177 249,178 249,182 251,184 251,185 252,186 252,187 257,192 258,192 260,194 262,194 263,195 264,195 265,196 275,196 276,195 278,195 279,194 280,194 281,193 282,193 284,191 285,191 288,188 288,187 290,185 290,184 291,183 291,181 292,180 292,167 291,166 291,165 290,164 290,163 289,162 289,161 283,155 282,155 281,154 280,154 279,153 278,153 277,152 274,152 273,151" stroke="none" /><polygon fill="white" points="215,151 214,152 210,152 209,153 208,153 207,154 206,154 204,156 203,156 199,160 199,161 197,163 197,165 196,166 196,168 195,169 195,179 196,180 196,181 197,182 197,184 199,186 199,187 204,192 205,192 207,194 209,194 210,195 211,195 212,196 222,196 223,195 225,195 226,194 227,194 228,193 229,193 233,189 234,189 234,188 236,186 236,185 238,183 238,181 239,180 239,177 240,176 240,172 239,171 239,168 238,167 238,165 237,164 237,163 236,162 236,161 229,154 228,154 227,153 225,153 224,152 220,152 219,151" stroke="none" /><polygon fill="white" points="842,142 841,143 840,143 839,144 838,144 833,149 833,150 832,151 832,152 831,153 831,154 830,155 830,157 829,158 829,162 828,163 768,163 768,183 875,183 875,157 874,156 874,155 873,154 873,152 871,150 871,149 866,144 865,144 864,143 863,143 862,142" stroke="none" /></svg>